<svg viewBox="0 0 900 560" xmlns="http://www.w3.org/2000/svg" font-family="Arial, sans-serif">
  <defs>
    <linearGradient id="bg2" x1="0" y1="0" x2="1" y2="1">
      <stop offset="0" stop-color="#dde4f0"/>
      <stop offset="1" stop-color="#c8d3e8"/>
    </linearGradient>
    <linearGradient id="brand2" x1="0" y1="0" x2="1" y2="1">
      <stop offset="0" stop-color="#34c9ba"/>
      <stop offset="1" stop-color="#22a99c"/>
    </linearGradient>
  </defs>
  <rect width="900" height="560" fill="url(#bg2)"/>
  <text x="20" y="30" font-size="13" fill="#5a6b8c">CONCEPT SKETCH — Iteration 2 — Login (refined pass)</text>

  <rect x="290" y="70" width="320" height="430" rx="18" fill="#ffffff" fill-opacity="0.7" stroke="#ffffff"/>

  <rect x="425" y="105" width="50" height="50" rx="14" fill="url(#brand2)"/>
  <text x="450" y="136" font-size="20" fill="#fff" text-anchor="middle">⏰</text>

  <text x="450" y="180" font-size="18" fill="#15203a" text-anchor="middle" font-weight="bold">NeverExpire</text>
  <text x="450" y="198" font-size="11" fill="#8a9ab5" text-anchor="middle">Sign in to your account</text>

  <text x="315" y="230" font-size="10" fill="#4a5568" font-weight="bold">EMAIL ADDRESS</text>
  <rect x="315" y="236" width="270" height="30" rx="8" fill="#fff" stroke="#c8d3e8"/>

  <text x="315" y="288" font-size="10" fill="#4a5568" font-weight="bold">PASSWORD</text>
  <rect x="315" y="294" width="270" height="30" rx="8" fill="#fff" stroke="#c8d3e8"/>

  <rect x="315" y="340" width="270" height="36" rx="10" fill="url(#brand2)"/>
  <text x="450" y="363" font-size="12" fill="#fff" text-anchor="middle" font-weight="bold">Sign in</text>

  <text x="450" y="398" font-size="10" fill="#8a9ab5" text-anchor="middle">Forgot password?</text>
  <line x1="315" y1="415" x2="585" y2="415" stroke="#e2e8f0"/>

  <text x="315" y="435" font-size="10" fill="#15203a" font-weight="bold">Demo accounts</text>
  <circle cx="325" cy="452" r="10" fill="#34c9ba"/>
  <text x="345" y="456" font-size="9" fill="#4a5568">Ahmed Al Rashid</text>
  <circle cx="325" cy="472" r="10" fill="#e879a0"/>
  <text x="345" y="476" font-size="9" fill="#4a5568">Fatima Al Rashid</text>
  <circle cx="325" cy="492" r="10" fill="#3182ce"/>
  <text x="345" y="496" font-size="9" fill="#4a5568">Imran Khan</text>
</svg>
